inDegrees=no
num_controls=7
num_derivatives=13
num_iterations=173
num_multipliers=7
num_parameters=0
num_slacks=7
num_states=26
objective=5.049881
objective_accelerations=0.344184
objective_balance=0.032789
objective_effort=0.168730
objective_height=4.438267
objective_ligament=0.065910
solver_duration=1910.834413
status=Solve_Succeeded
success=true
DataType=double
version=3
OpenSimVersion=4.4-2022-07-23-0e9fedc
endheader
time	/jointset/ground_pelvis/pelvis_tilt/value	/jointset/ground_pelvis/pelvis_tx/value	/jointset/ground_pelvis/pelvis_ty/value	/jointset/hip_l/hip_flexion_l/value	/jointset/hip_l/hip_adduction_l/value	/jointset/hip_l/hip_rotation_l/value	/jointset/back/lumbar_extension/value	/jointset/patellofemoral_l/patellar_flexion_l/value	/jointset/knee_l/knee_flexion_l/value	/jointset/knee_l/knee_adduction_l/value	/jointset/knee_l/knee_rotation_l/value	/jointset/ankle_l/ankle_angle_l/value	/jointset/subtalar_l/subtalar_angle_l/value	/jointset/ground_pelvis/pelvis_tilt/speed	/jointset/ground_pelvis/pelvis_tx/speed	/jointset/ground_pelvis/pelvis_ty/speed	/jointset/hip_l/hip_flexion_l/speed	/jointset/hip_l/hip_adduction_l/speed	/jointset/hip_l/hip_rotation_l/speed	/jointset/back/lumbar_extension/speed	/jointset/patellofemoral_l/patellar_flexion_l/speed	/jointset/knee_l/knee_flexion_l/speed	/jointset/knee_l/knee_adduction_l/speed	/jointset/knee_l/knee_rotation_l/speed	/jointset/ankle_l/ankle_angle_l/speed	/jointset/subtalar_l/subtalar_angle_l/speed	/forceset/tau_hip_flexion_l	/forceset/tau_hip_adduction_l	/forceset/tau_hip_rotation_l	/forceset/tau_knee_flexion_l	/forceset/tau_ankle_angle_l	/forceset/tau_subtalar_angle_l	/forceset/tau_lumbar_extension	lambda_cid13_p0	lambda_cid13_p1	lambda_cid13_p2	lambda_cid13_p3	lambda_cid13_p4	lambda_cid13_p5	lambda_cid14_p0	/jointset/ground_pelvis/pelvis_tilt/accel	/jointset/ground_pelvis/pelvis_tx/accel	/jointset/ground_pelvis/pelvis_ty/accel	/jointset/hip_l/hip_flexion_l/accel	/jointset/hip_l/hip_adduction_l/accel	/jointset/hip_l/hip_rotation_l/accel	/jointset/back/lumbar_extension/accel	/jointset/patellofemoral_l/patellar_flexion_l/accel	/jointset/knee_l/knee_flexion_l/accel	/jointset/knee_l/knee_adduction_l/accel	/jointset/knee_l/knee_rotation_l/accel	/jointset/ankle_l/ankle_angle_l/accel	/jointset/subtalar_l/subtalar_angle_l/accel	gamma_cid13_p0	gamma_cid13_p1	gamma_cid13_p2	gamma_cid13_p3	gamma_cid13_p4	gamma_cid13_p5	gamma_cid14_p0
1.5	-0.1499899150412967	0.09044060126858787	0.8243389831675143	0.6075376022890843	-0.4410947383843824	-0.3013090447702882	-0.194136989084147	0.6582843637317266	0.6582843637317215	-0.1646936805568128	-0.1657778636763306	0.2355945882377229	0.03870288144054225	0.09935195414883206	0.04208748376103157	0.2797812366142307	-1.120034629076607	0.2610917913123192	-0.6397417141316094	0.3521812665364522	-1.613228695717541	-1.613228695717528	-0.01914783368770548	0.05423947146756259	-0.7036505863444343	-0.09800503719482902	-0.06572069952716691	0.04048300327405573	-0.009808267121217162	-0.2034201526749168	-0.04756321268249749	0.02410974611990876	0.09283837568125278	-48.14553957708468	-7.44495892700937	7.023716324845041	4.125544123154309	-532.1972026707165	-69.72881185552805	-32.26920769309208	0.04188573627148237	0.1243515810891014	-0.2897479488590284	-0.4669823546735197	0.5508285290028999	-0.1184171155768919	0.7765838336942144	-1.138642984281107	-1.138642984281105	-0.05174748408295723	0.142930991118213	-0.5112363396494848	0.4092104364111012	6.729038518588056e-08	8.933037032263851e-07	-1.25125166174848e-07	1.881656296309116e-07	6.685377740825775e-09	4.81123818797027e-07	9.318616936650841e-08
1.51	-0.1489944564249838	0.09086763958826265	0.8271216845965766	0.5963155418435914	-0.4384568047870549	-0.3077125926365407	-0.1905767674432446	0.642097575181501	0.6420975751815066	-0.164887803816347	-0.165229767258415	0.2285334337521736	0.03774304237256151	0.09973367652268035	0.04331312013914264	0.2767020716954303	-1.124213371212847	0.2664697976753773	-0.6408755432723221	0.3598074608392418	-1.623898803318467	-1.623898803318459	-0.01967793822537382	0.05536802466552532	-0.7084800809456698	-0.09394686304706318	-0.06334080565267078	0.03882780857040304	-0.009816585887456805	-0.2008086741331736	-0.04482636573803096	0.0236487511877234	0.09059883146872759	-47.19833256442568	-7.437121265529091	7.0527625304761	3.820918591012924	-530.3049913799631	-69.73596220203277	-32.96404691252754	0.03538006428300249	0.1206515245400319	-0.3255501343665008	-0.3687309845658091	0.5274280885758087	-0.09694656687117059	0.7472971078692683	-0.9966803818629926	-0.9966803818637935	-0.05366978155366157	0.09604152918848227	-0.4537389872567606	0.4063636425422847	5.406951205264066e-08	9.282483199537771e-07	-7.447837990200143e-08	1.988262028723675e-07	-6.78730576482183e-09	4.65829884184263e-07	8.905444330893043e-08
1.52	-0.1479953676696636	0.09130673064339213	0.8298718845022559	0.5850566118084434	-0.4357658628463725	-0.3141246949449111	-0.1869419518834546	0.6258109884084955	0.6258109884085089	-0.1650872336898572	-0.1646707404994991	0.2214269977272329	0.0368242335937751	0.1000779819501866	0.04449803085197057	0.2732809319375977	-1.127408547007749	0.2716934599831766	-0.6414526025551422	0.3671000503139487	-1.633188340273979	-1.633188340273976	-0.0202091564808366	0.05642553966561435	-0.7127068942227525	-0.08979897935597918	-0.06096091177817149	0.03717261386675166	-0.009824904653757469	-0.1981971955914218	-0.04208951879356301	0.02318775625554159	0.08835928725620402	-46.25846337459672	-7.428764232102822	7.082600846220181	3.514496274312499	-528.5354437041597	-69.77362737314425	-33.6460391528698	0.03440234700308649	0.1162064480324642	-0.35814291666548	-0.2702690864059096	0.5199597179511765	-0.007063143998345953	0.7098628680777157	-0.8625288551982075	-0.862528855198208	-0.05197022764184324	0.1287233515434768	-0.3907000748189092	0.4271523450747312	4.314107174177418e-08	9.624947857074791e-07	-3.708622926328152e-08	2.086115904143007e-07	-1.801193126713855e-08	4.559427158465439e-07	8.665404951734169e-08
1.53	-0.1469930716268234	0.09175744923300379	0.8325861926098947	0.5737707548845224	-0.4330235010209282	-0.3205399440170413	-0.1832358897817586	0.6094385584651225	0.6094385584651384	-0.1652918922141767	-0.1641016452200655	0.2142813653958845	0.03594733946386802	0.1003744800149844	0.04563679536130263	0.2695275082904856	-1.129593676302814	0.2767486081768614	-0.6415067936733266	0.3740504910475275	-1.641056126371655	-1.641056126371645	-0.02072058738384053	0.05737880181227285	-0.7163143756589505	-0.08556717211205091	-0.05852083088931147	0.03551897882351427	-0.009863737843480588	-0.1955943719135552	-0.0392165807111548	0.02261296886002709	0.08606966323374445	-45.27838703622238	-7.370892394439124	7.096394972550247	3.204300914195365	-526.748972823046	-69.71802852411	-34.31188718593857	0.02623552638400915	0.1114221375884044	-0.3919255993701062	-0.1672897644764195	0.4936426857710297	0.009035709006761202	0.6783528293572085	-0.7126923413503885	-0.712692341349309	-0.05028081868645792	0.07641772908015411	-0.3299602813904055	0.4229358898768519	3.464834130467941e-08	9.959994660516356e-07	-1.377712898582101e-08	2.17467093150491e-07	-2.684799514091625e-08	4.518002366760603e-07	8.609319625836647e-08
1.54	-0.1459880182053014	0.09221929760474971	0.8352613697789354	0.5624681156849678	-0.4302315176504075	-0.3269530084394067	-0.1794621796420549	0.5929946928899166	0.5929946928899307	-0.1655015753069495	-0.1635234593025823	0.2071028206295003	0.03511311160156531	0.1006294576864154	0.04672398727882813	0.2654547442179376	-1.130765002134666	0.2816177689983014	-0.6410156726021007	0.3806296579154756	-1.647475466641252	-1.647475466641235	-0.021214070169115	0.05824366727305492	-0.7192893812299549	-0.08126572583512377	-0.05608075000044896	0.03386534378027678	-0.009902571033277302	-0.1929915482356786	-0.03634364262874563	0.0220381814645141	0.08378003921128672	-44.30638991296558	-7.312641176373818	7.111311712087618	2.893384179058015	-525.0974640451363	-69.69472690053117	-34.95820182095108	0.02609826832973372	0.105891929671142	-0.4220110017526415	-0.06750839376322648	0.4827622435022164	0.1019992938837229	0.6356080949515751	-0.5728396895821367	-0.5728396895821327	-0.04838060409594811	0.1110440143681974	-0.2642049017801859	0.4410801516745014	3.250360368293207e-08	1.017545489179756e-06	-1.875769180804606e-08	2.21423976855453e-07	-2.692435223376709e-08	4.574501252991478e-07	8.827721630227337e-08
1.55	-0.1449806060179432	0.09269175273141257	0.8378942746481389	0.5511587787141679	-0.4273918519260263	-0.3333583540255098	-0.1756246290448751	0.5764939021747402	0.5764939021747432	-0.1657162574939024	-0.1629370145556092	0.1998977057824162	0.03432216396218617	0.1008451348757365	0.04775715449926972	0.2610777353599505	-1.130931158203952	0.2862791596171297	-0.6399615037180142	0.3868117665884043	-1.652433257260555	-1.652433257260544	-0.02172086618526529	0.05903162852116822	-0.72162403390569	-0.0769152749988582	-0.0535487148343742	0.03195283618691345	-0.009978681527900258	-0.1904894544444354	-0.03333458636280883	0.02151115697583934	0.08142212601938821	-43.28997625464836	-7.286179372103746	7.13502983997946	2.550978700051746	-523.4552456830559	-69.76959221401184	-35.58148490209902	0.01810014635429336	0.1005903449317955	-0.452822235918546	0.03448752211407964	0.4522967513616613	0.1209962831023748	0.5992080136690375	-0.4198551969695241	-0.4198551969704085	-0.05145135140248679	0.06060452804393456	-0.2016301872717543	0.4331528627928209	3.767285778321508e-08	1.025313059428533e-06	-5.633286646251574e-08	2.197367995026956e-07	-1.690800368772453e-08	4.743825246409147e-07	9.362380776037035e-08
1.56	-0.1439712775182668	0.09317425177562005	0.8404819541471433	0.5398529115298011	-0.4245066784393982	-0.3397503838032864	-0.1717273182089248	0.5599510122636016	0.5599510122635878	-0.1659359320912334	-0.1623431037265397	0.1926725374612144	0.03357494589380782	0.1010127201498959	0.04873277078775779	0.2564096701780945	-1.130071044848221	0.2907193214474988	-0.6383525109366764	0.392581705669553	-1.655895305834463	-1.655895305834457	-0.0222125522425315	0.05973688368972181	-0.7233000760534887	-0.07251981163498343	-0.05101667966829974	0.03004032859354755	-0.01005479202259888	-0.1879873606531833	-0.03032553009687242	0.02098413248716209	0.079064212827491	-42.28128014264845	-7.258755330126665	7.159039661946787	2.206404108317939	-521.943321844711	-69.87629056079811	-36.17821158721784	0.01647988529742934	0.09438174328043046	-0.4802222665264461	0.1377454912404548	0.4385164858103721	0.2129640733339961	0.553174176595564	-0.27369128050304	-0.2736912805030445	-0.04535861231913036	0.09450279845625774	-0.1324827961929273	0.4500826571963372	3.677887498742217e-08	1.038242567942681e-06	-6.947558727572113e-08	2.211268231453291e-07	-1.456706634411007e-08	4.801001528489742e-07	9.610807476109496e-08
1.57	-0.1429605688701745	0.09366620023096853	0.8430215376206064	0.5285608860956189	-0.4215782616951466	-0.3461236491616142	-0.1677743746985756	0.5433811238776916	0.5433811238776878	-0.1661603973895518	-0.1617426544091032	0.1854339569647803	0.03287189068051661	0.1011191632952921	0.04964513566079862	0.2514631587932017	-1.12815655690345	0.2949215061057326	-0.6362086671018531	0.3979334620406205	-1.657821183098346	-1.657821183098347	-0.02267724713952284	0.06033752314815752	-0.7243016513082065	-0.06808669157386288	-0.04843379116338078	0.028169355102699	-0.01016393755314262	-0.185506540653447	-0.02716396493272893	0.02030989369477736	0.07666859761692016	-41.23002611198329	-7.166670450964841	7.163399667262714	1.859483603943218	-520.4436353598057	-69.85910384335236	-36.74481913940039	0.006220308907663594	0.0879420417808925	-0.5084506319792025	0.2448907857410962	0.4045813379373469	0.2289553250042685	0.5151462134287664	-0.1128765889465036	-0.1128765889475746	-0.04637387125834934	0.04050884509503153	-0.06680821534130914	0.4404438534492501	2.830584607153447e-08	1.057624499288542e-06	-5.207774078734647e-08	2.263633480322014e-07	-2.182039300353068e-08	4.717993171398999e-07	9.501443619010413e-08
1.58	-0.1419490970346783	0.09416692797154042	0.845510338968719	0.5172933236088141	-0.4186091207278905	-0.3524727039243048	-0.1637701196553023	0.5267998085912223	0.5267998085912248	-0.1663893794254221	-0.1611366658319608	0.1781887980507531	0.03221327010241255	0.1011653576305649	0.05048862783244032	0.2462532451079697	-1.125178455372853	0.2988641660482652	-0.6335103918091189	0.4028440122543439	-1.658180685946852	-1.658180685946861	-0.02311589975128196	0.06084473562890429	-0.7246157595721283	-0.06363288459756911	-0.04585090265846362	0.02629838161184901	-0.01027308308374394	-0.1830257206537038	-0.02400239976858549	0.01963565490239158	0.07427298240634857	-40.18702972215812	-7.073922163073991	7.168548385374015	1.511146260660484	-519.0830487045853	-69.87511498274989	-37.27779537826094	0.004430123272775575	0.08060720300059464	-0.5329027265942795	0.3504682084056359	0.3866115426701467	0.3238503649161554	0.4649329451267216	0.03958360257219066	0.03958360257219033	-0.04015015527268025	0.07581740291847067	0.005010601966288409	0.4542200402309739	3.035378612666239e-08	1.063959881807508e-06	-6.959713331967131e-08	2.239910683684837e-07	-8.949556827658569e-09	4.797678978074153e-07	9.717921261443794e-08
